PathFileType	4	(X/Y/Z)	61_2_81_p0_0-514_filt_butterworth.trc
DataRate	CameraRate	NumFrames	NumMarkers	Units	OrigDataRate	OrigDataStartFrame	OrigNumFrames
59.0	59.0	5	27	m	59.0	192	514
Frame#	Time	RHip			RKnee			RAnkle			RBigToe			RSmallToe			RHeel			LHip			LKnee			LAnkle			LBigToe			LSmallToe			LHeel			Neck			Head			Nose			RShoulder			RElbow			RWrist			RThumb			RIndex			RPinky			LShoulder			LElbow			LWrist			LThumb			LIndex			LPinky			
		X1	Y1	Z1	X2	Y2	Z2	X3	Y3	Z3	X4	Y4	Z4	X5	Y5	Z5	X6	Y6	Z6	X7	Y7	Z7	X8	Y8	Z8	X9	Y9	Z9	X10	Y10	Z10	X11	Y11	Z11	X12	Y12	Z12	X13	Y13	Z13	X14	Y14	Z14	X15	Y15	Z15	X16	Y16	Z16	X17	Y17	Z17	X18	Y18	Z18	X19	Y19	Z19	X20	Y20	Z20	X21	Y21	Z21	X22	Y22	Z22	X23	Y23	Z23	X24	Y24	Z24	X25	Y25	Z25	X26	Y26	Z26	X27	Y27	Z27	
192	3.254237288135593	0.3633829842321467	0.5861803181925649	0.949166326307004	0.36519505797466456	0.720560632817508	1.3508118721457403	0.3552399211382827	0.8813774586617305	1.7876977479044007	0.296343751970901	0.7272725701641979	1.8379319969199166	0.35717635556744876	0.70833700312177	1.8260452721843514	0.3462147934776561	0.9015551464784526	1.8063916950061643	0.16848221303999097	0.5688496528224446	0.9640046123324003	0.17398118656687248	0.6729713792532485	1.361148353091688	0.18947065560804144	0.7640187476744122	1.7683323064576995	0.16770940396493275	0.6604565196895464	1.7996412849569368	0.11265982361106712	0.698313091032544	1.795435939650744	0.2048191762937818	0.8200110548725329	1.7977829944090278	0.2487161451628248	0.4782275583355703	0.437566335816829	0.24502548977693758	0.39766137538148427	0.2027388790424496	0.26371629468587554	0.3393525948277761	0.34854127048282296	0.42540514276073604	0.503763480439488	0.5125931300336846	0.4734683979663989	0.5450300838534305	0.7511255953431317	0.4717629112939921	0.5900845873392901	1.012358890191591	0.4346842476866065	0.5578814012401047	1.1167766348149377	0.44998395614413594	0.5333707613347831	1.1268504556304935	0.47960231852078344	0.615416766536085	1.1246714553954908	0.09327904519722771	0.5280060351528265	0.5145745029704417	0.0685103017650446	0.551036339115913	0.7859201285427279	0.07211377969760319	0.541375481896704	1.025642283047669	0.12701869604964267	0.532380009561077	1.1323206819287852	0.10890618940342514	0.5133460164436675	1.1580247746215664	0.05739525805923241	0.5671593340639282	1.1503360925036175
193	3.2711864406779663	0.3636149284810203	0.5857875438040461	0.9483898176396082	0.3652765888970758	0.721081922382783	1.3525175499998199	0.3551703762199155	0.8814447362646887	1.7875887580132388	0.29504373342795126	0.7226951520794763	1.8357773227847256	0.35865479956814217	0.7043663529980948	1.822987152203692	0.34727357289967536	0.9017941568231724	1.8051991450207847	0.16854530187057135	0.5687610728057242	0.963560691226399	0.17508837378917924	0.6722037731434121	1.362304110100532	0.18933683012057312	0.7644820963234671	1.7674382165125273	0.16788325549128927	0.6514139300904345	1.7959653284846928	0.11449331479067137	0.6939741708807784	1.7936153744715644	0.2051840260395078	0.820644770588204	1.7979776457929701	0.24883141106581463	0.4782062903917234	0.43850565444717154	0.24388762645943787	0.39729724918576015	0.20356967288871103	0.2635883470800655	0.33926653090610004	0.34855886568002215	0.4254401127935181	0.5036710936381686	0.512598748154111	0.4739017145305163	0.5459343242194858	0.75158256713824	0.47013114513461784	0.5892377709682806	1.0124859873761007	0.43227567745512385	0.5591177038403996	1.1172853256304425	0.4477799595620817	0.5364311049477107	1.1272550650536237	0.4783892074354914	0.6176641548851027	1.1248823922292452	0.09492226447811147	0.5250730530498645	0.5155936144730949	0.06851037267694687	0.5511382131958787	0.7859332798216397	0.07212139526582655	0.5413634872075076	1.0245000888553382	0.12809524901812147	0.5320414219398897	1.1318462708863044	0.11145930541243317	0.5094214297696993	1.1559283065205797	0.05773753994465371	0.5670696131192933	1.1500389475862038
194	3.288135593220339	0.36382833622880145	0.5853371969288004	0.9471737253340317	0.3653854252495579	0.7210478652964102	1.3529128186503234	0.35515407777219155	0.8816420154790016	1.787448787214961	0.29491501809371296	0.7245407763694691	1.8356456709048112	0.36177784450973605	0.7050073104965464	1.8210985128752004	0.3487173828275539	0.9020877892218754	1.8034127577507533	0.16865734845022418	0.5684742580793236	0.9624079982377886	0.17577576316259083	0.6723480360925066	1.362280970851067	0.1893327136288124	0.7646247729324303	1.7654598350717792	0.16824304332825402	0.6504806938078155	1.7943541164772832	0.11527892013900393	0.6921348400613245	1.7928093477429918	0.20519318104205034	0.8207882012729355	1.7979668801791755	0.24886367514481447	0.47818698973284035	0.43886718268065605	0.24341348164764595	0.39709468234745027	0.20456760648389247	0.26345717776061933	0.33920881871834024	0.3485697129381227	0.42547794991009696	0.503591685351885	0.5126057135472877	0.4734290394272197	0.5473653333209513	0.7512711040005841	0.468800702934982	0.5875090685805675	1.0124326366238063	0.42987350199466146	0.5627734565262557	1.1179673631053886	0.4455989580864917	0.5410029046358568	1.1271913251199384	0.4782645017700683	0.622409632128264	1.1253498024523951	0.09561459072237574	0.5244976851202912	0.5168466965323134	0.0685138062039	0.5512226038689687	0.7859312106229027	0.07266692286915163	0.5402443789869069	1.0245137718549033	0.13018821312892398	0.5316076316727574	1.131614074673493	0.11499157994205866	0.5049429190026044	1.1543815367841765	0.05874027593550185	0.5678040185715961	1.1499540538590327
195	3.305084745762712	0.3639839242491476	0.5847521401501099	0.9453860733900165	0.36555406570311955	0.7207212285016178	1.351948909900962	0.35515833488610127	0.8818943052542998	1.7873448191446126	0.29549389484161087	0.7284867933543242	1.8363695822013857	0.36332637752827274	0.7097110679374005	1.8216344513311657	0.3498115910509265	0.9022816655233201	1.801771758676153	0.16880020865814555	0.5681502291375256	0.961015194612753	0.17618739654489338	0.6725033208076927	1.3619304567578205	0.1895922483422878	0.7644420832377246	1.764334844582347	0.1683970084372758	0.6575751656496154	1.7946494809983449	0.11513203392138732	0.692561974434592	1.7927989088716392	0.20517462083701976	0.820689924712676	1.7978718898541768	0.24880693361830603	0.4781297078839545	0.43883659960048227	0.2433424699321863	0.397073666268405	0.2053070541503591	0.26338627361319433	0.3391845203576983	0.34857793189679415	0.42549950598490455	0.5035499739406899	0.5126128882134219	0.4721716565637215	0.550537993818275	0.7502770587129969	0.4676304714688567	0.5841499823676759	1.0121359061368087	0.4268544180127595	0.5675612616847339	1.1184457367448801	0.4436725834826307	0.5446831676985189	1.1262389263838448	0.47721879836053155	0.6262841906104363	1.1258189037021267	0.09567875229416566	0.5250969921087221	0.517767026142776	0.0685168199114648	0.5512187219352354	0.7859270695129617	0.07410910589994738	0.5372298188881267	1.024982296349647	0.13264858559075465	0.531236322491176	1.1316112182894917	0.11776387203473006	0.5020738900526543	1.1540940448234243	0.06002336863901998	0.5690087594024175	1.150168441614026
196	3.3220338983050848	0.36411970696823437	0.5841802288176057	0.9431600273825185	0.3657516308579688	0.7203415509207568	1.349967112699057	0.35517399758952645	0.8820331614049357	1.7873048373548222	0.29593942290453107	0.7309886088921616	1.8369984651795606	0.36196596988563673	0.7156159734040418	1.8243178973465854	0.3502846110203185	0.9022512312451609	1.8012168348892128	0.1689232816271493	0.5679641869522193	0.9600271574122383	0.17630910753246815	0.6724899588540397	1.3617544460960411	0.18991376433763285	0.7640464764208575	1.7647188565915333	0.16808892519646712	0.6671412431001291	1.7961345968042837	0.11415859423320762	0.6950549623648109	1.793272411899312	0.20532754064809103	0.8204223404372922	1.7981319374664335	0.24870097835113764	0.478024923504923	0.43869280521586895	0.24347914604170284	0.39715893800965024	0.20562990503156164	0.26340525668459636	0.3391804798654748	0.34857486618514966	0.42550458397295154	0.5035418669597261	0.512618558842203	0.47061609152504236	0.5545560941185571	0.74900140516111	0.46645613836865685	0.5798720066983509	1.0117364950636338	0.4225354817562125	0.5710894033345445	1.1188441769340223	0.4418694440113309	0.546205995091275	1.1246732712803211	0.47452280780455125	0.6264332386616625	1.1261177786679906	0.09556920005045468	0.5256388521745228	0.5181141216084286	0.06850875768320178	0.5510485596817356	0.7859224693017686	0.07602613681424741	0.5332037907175903	1.0250805195085881	0.13430850736639866	0.5310183119786114	1.1315236729306049	0.11891247238730372	0.5013135446051071	1.154588671414094	0.060947752185211305	0.5700408752093332	1.1504530263464405
